<?xml version="1.0" encoding="UTF-8" standalone="no"?>
<!-- Created with Inkscape (http://www.inkscape.org/) -->

<svg
   xmlns:dc="http://purl.org/dc/elements/1.1/"
   xmlns:cc="http://creativecommons.org/ns#"
   xmlns:rdf="http://www.w3.org/1999/02/22-rdf-syntax-ns#"
   xmlns:svg="http://www.w3.org/2000/svg"
   xmlns="http://www.w3.org/2000/svg"
   xmlns:sodipodi="http://sodipodi.sourceforge.net/DTD/sodipodi-0.dtd"
   xmlns:inkscape="http://www.inkscape.org/namespaces/inkscape"
   id="svg6968"
   version="1.1"
   inkscape:version="0.91 r13725"
   width="400"
   height="342.21393"
   viewBox="0 0 400 342.21393"
   sodipodi:docname="ncu.svg">
  <metadata
     id="metadata6974">
    <rdf:RDF>
      <cc:Work
         rdf:about="">
        <dc:format>image/svg+xml</dc:format>
        <dc:type
           rdf:resource="http://purl.org/dc/dcmitype/StillImage" />
        <dc:title></dc:title>
      </cc:Work>
    </rdf:RDF>
  </metadata>
  <defs
     id="defs6972" />
  <sodipodi:namedview
     pagecolor="#ffffff"
     bordercolor="#666666"
     borderopacity="1"
     objecttolerance="10"
     gridtolerance="10"
     guidetolerance="10"
     inkscape:pageopacity="0"
     inkscape:pageshadow="2"
     inkscape:window-width="1920"
     inkscape:window-height="1017"
     id="namedview6970"
     showgrid="false"
     fit-margin-top="0"
     fit-margin-left="0"
     fit-margin-right="0"
     fit-margin-bottom="0"
     inkscape:zoom="2"
     inkscape:cx="240.82451"
     inkscape:cy="155.62766"
     inkscape:window-x="-8"
     inkscape:window-y="-8"
     inkscape:window-maximized="1"
     inkscape:current-layer="svg6968" />
  <g
     id="g7017">
    <path
       transform="matrix(0.01090483,1.2251336,-1.2251336,0.01090483,472.62725,194.66238)"
       inkscape:transform-center-y="7.867043"
       inkscape:transform-center-x="0.8588263"
       d="M 99.500001,224.21393 -2.616026,281.17064 -0.88397516,164.25721 Z"
       inkscape:randomized="0"
       inkscape:rounded="0"
       inkscape:flatsided="true"
       sodipodi:arg2="1.0620113"
       sodipodi:arg1="0.014813731"
       sodipodi:r2="33.753704"
       sodipodi:r1="67.507408"
       sodipodi:cy="223.21393"
       sodipodi:cx="32"
       sodipodi:sides="3"
       id="path7015"
       style="fill:#ffffff;fill-opacity:1;stroke:none;stroke-width:0.89999998;stroke-linejoin:round;stroke-miterlimit:4;stroke-dasharray:none;stroke-opacity:1"
       sodipodi:type="star" />
    <g
       transform="matrix(0.16916427,0,0,0.16916427,22.468754,-72.286731)"
       id="g7009">
      <path
         inkscape:connector-curvature="0"
         id="path7000"
         d="M 1047.4783,2440.8578 C 1031.8993,2414.8633 -132.8221,428.53809 -132.8221,427.96416 c 0,-0.35606 532.18517,-0.64738 1182.6337,-0.64738 1038.9877,0 1182.5483,0.22277 1181.9299,1.83407 -0.9322,2.42939 -1175.7753,2019.73785 -1177.0406,2021.08195 -0.5391,0.5726 -3.7892,-3.6461 -7.2226,-9.375 z m 34.6797,-211.2258 c 13.6376,-23.6043 24.5451,-43.3222 24.2389,-43.8176 -0.8687,-1.4056 -26.2717,-9.318 -36.9788,-11.518 -13.7815,-2.8316 -23.8687,-2.5134 -36.518,1.1523 -11.2485,3.2597 -26.9722,9.8466 -26.9722,11.2992 0,1.2545 50.5601,86.6596 51.0298,86.1985 0.2226,-0.2186 11.5628,-19.7101 25.2003,-43.3144 z m -80.8539,-111.1495 c 15.2619,-5.5462 31.1238,-10.8926 35.2488,-11.8806 10.8215,-2.592 32.0675,-3.553 44.375,-2.0071 42.5389,5.343 60.2119,7.8645 63.2695,9.027 2.9481,1.1209 3.8045,0.9691 5.1869,-0.9187 3.051,-4.1672 22.7936,-38.8393 22.7936,-40.0304 0,-0.6472 -2.9531,-1.8585 -6.5625,-2.6922 -12.3125,-2.8437 -20.1026,-3.0279 -33.4272,-0.7905 -18.7382,3.1467 -35.5333,2.1483 -51.8853,-3.0841 -14.9983,-4.7992 -23.5572,-4.686 -44.375,0.5874 -9.7777,2.4767 -18.7039,3.6482 -35,4.5933 -12.0312,0.6976 -24.7784,1.807 -28.3269,2.4649 -5.9968,1.1122 -26.6731,10.1405 -26.6731,11.6468 0,0.5526 12.2516,21.5991 22.7644,39.106 1.3417,2.2344 2.9848,4.0625 3.6513,4.0625 0.6665,0 13.6987,-4.5379 28.9605,-10.0843 z m -74.5558,-101.9036 c 9.8212,-2.9272 14.1927,-3.408 39.1796,-4.3091 17.7472,-0.64 30.4312,-1.6762 34.375,-2.8082 3.4375,-0.9868 11.1546,-3.2561 17.149,-5.0428 24.6318,-7.3419 49.1036,-7.6184 68.1485,-0.77 22.9056,8.2368 32.2028,10.1856 51.5775,10.8115 14.053,0.454 20.2311,0.1163 27.5,-1.5013 5.1563,-1.1477 17.3096,-2.3991 27.0076,-2.7807 l 17.6327,-0.694 11.3168,-19.5212 11.3169,-19.5213 -5.8245,-1.4425 c -9.8936,-2.4502 -20.8238,-1.8889 -38.164,1.9601 -31.7937,7.0572 -40.3922,6.3945 -78.6951,-6.065 -30.5209,-9.928 -40.419,-11.8337 -57.0331,-10.9805 -14.6983,0.7549 -22.0538,2.7301 -46.3073,12.4353 l -15.625,6.2523 -14.375,-1.0798 c -7.9062,-0.5939 -22.5312,-1.0799 -32.5,-1.0799 l -18.125,0 -10,4.7604 c -11.0979,5.2831 -25.9131,14.5111 -25.3579,15.7947 0.1969,0.4551 4.5495,7.9253 9.6726,16.6004 l 9.3148,15.7729 3.3806,-1.7483 c 1.8594,-0.9615 8.3552,-3.2309 14.4353,-5.043 z m -69.84135,-97.2255 c 3.24275,-1.6299 10.39595,-4.5495 15.89595,-6.4881 12.9242,-4.5555 31.568,-5.4169 55.0504,-2.5432 18.815,2.3025 31.1748,2.5233 40.7165,0.7276 3.7032,-0.697 20.2331,-5.715 36.7331,-11.1512 17.6459,-5.8137 34.3111,-10.5081 40.4689,-11.3995 20.2371,-2.9297 39.488,0.4252 78.9061,13.7506 14.0938,4.7643 28.6058,9.2598 32.249,9.9898 10.2494,2.0538 29.1816,1.5843 42.5546,-1.0552 18.0812,-3.5689 28.0245,-4.1162 44.5807,-2.4538 24.6148,2.4716 20.8588,4.2865 32.6756,-15.7886 5.6655,-9.625 10.3322,-17.9529 10.3706,-18.5063 0.1814,-2.6252 -24.2596,-10.8687 -32.2244,-10.8687 -2.0943,0 -12.7007,2.3572 -23.5696,5.2384 -18.462,4.8938 -20.8712,5.2412 -36.6365,5.2823 -19.5494,0.051 -22.0069,-0.5061 -55.5142,-12.5811 -34.12,-12.2957 -40.0719,-13.5509 -63.8608,-13.4666 l -20,0.071 -19.945,5.8593 c -30.2818,8.896 -38.3046,10.069 -69.43,10.151 -19.2682,0.051 -32.1605,-0.5964 -45.549,-2.2864 -30.2221,-3.8149 -45.6659,-1.4606 -76.42131,11.6498 -20.49395,8.7361 -19.91105,6.0945 -6.42215,29.1048 6.3346,10.8062 11.95804,19.6655 12.49651,19.6875 0.53849,0.023 3.63224,-1.2933 6.875,-2.9232 z m -60.84526,-105.8541 c 32.56704,-16.4399 81.68891,-22.2591 121.11621,-14.3481 11.8944,2.3865 22.4514,3.5813 35.7685,4.0482 22.348,0.7834 32.4277,-0.8397 52.8478,-8.5099 19.9719,-7.5017 31.5418,-10.1572 47.0087,-10.7893 16.8925,-0.6903 26.0588,1.0831 45.6689,8.8356 28.8985,11.4246 48.6091,15.7076 76.8311,16.6951 17.2974,0.6053 19.8638,0.3947 33.125,-2.7187 7.9063,-1.8561 20.2813,-4.7458 27.5,-6.4214 26.8673,-6.2364 50.6731,-5.2012 78.089,3.3956 8.7643,2.7482 11.5924,3.2 12.6573,2.0222 2.1427,-2.3699 25.5037,-43.1944 25.5037,-44.5689 0,-4.0846 -30.9384,-8.1529 -54.8785,-7.2161 -15.0676,0.5895 -19.4081,1.3152 -38.2465,6.3948 -30.4687,8.2158 -40.6641,9.8152 -62.5,9.8042 -27.924,-0.014 -46.5647,-3.6825 -93.75,-18.4503 -16.5,-5.164 -35.0433,-10.319 -41.2073,-11.4555 -15.1926,-2.8011 -23.4778,-1.295 -45.5504,8.2808 -26.9278,11.682 -28.3962,11.9573 -63.2423,11.863 -26.025,-0.07 -34.3062,-0.6195 -62.5,-4.1433 -42.60721,-5.3254 -61.66021,-6.1802 -75.45144,-3.3859 -11.3645,2.3028 -23.93621,6.9424 -37.99346,14.0215 -14.28812,7.1954 -14.89225,7.7053 -12.90334,10.8902 0.9269,1.4843 6.55773,10.9956 12.51293,21.1362 5.95521,10.1406 11.09854,18.4375 11.42962,18.4375 0.33109,0 4.0051,-1.7179 8.16448,-3.8175 z M 733.4279,1696.0595 c 29.80388,-13.0771 60.37842,-20.8482 86.875,-22.0807 18.52807,-0.8619 27.8036,0.4069 60.625,8.2923 35.6234,8.5586 46.9407,10.386 65,10.4955 19.1351,0.1162 25.154,-1.1528 50.5807,-10.6614 26.5101,-9.9137 38.1491,-12.6641 53.7943,-12.7119 14.9344,-0.046 21.8093,1.4669 40,8.8009 27.0428,10.9027 52.821,15.8272 90.625,17.3121 24.2728,0.9535 33.6953,-0.217 70.2073,-8.7212 31.2993,-7.2902 45.0983,-9.457 60.2607,-9.4633 15.5004,0 36.3554,4.0916 60.673,11.9219 11.2809,3.6325 18.3524,5.3297 19.0982,4.5839 3.4964,-3.4964 29.1609,-49.7343 27.9834,-50.4158 -2.5418,-1.4711 -38.8469,-9.8126 -53.6593,-12.3289 -27.2851,-4.635 -40.6827,-3.4534 -83.3133,7.3479 -29.8255,7.5569 -49.0266,10.136 -75.46,10.136 -32.3437,0 -48.9949,-2.7776 -94.2817,-15.7274 -38.5092,-11.0117 -45.4376,-12.3409 -64.0083,-12.2802 -18.6104,0.061 -32.0212,2.5928 -66.875,12.6257 -36.034,10.3727 -51.7131,13.2829 -71.875,13.3409 -19.2762,0.055 -26.3179,-1.4065 -57.1812,-11.8715 -33.94811,-11.5109 -41.44487,-12.9458 -67.1938,-12.8604 -21.04954,0.07 -23.42669,0.3225 -36.875,3.9205 -7.90625,2.1152 -19.15625,5.6033 -25,7.7513 -12.73549,4.6811 -34.42174,15.3026 -34.25877,16.7793 0.30105,2.7281 30.03777,51.9178 31.13377,51.5008 0.6875,-0.2617 6.59375,-2.8205 13.125,-5.6863 z"
         style="fill:#fde400" />
      <path
         inkscape:connector-curvature="0"
         id="path6998"
         d="M 1047.4783,2440.8578 C 1031.8993,2414.8633 -132.8221,428.53809 -132.8221,427.96416 c 0,-0.35606 532.18517,-0.64738 1182.6337,-0.64738 1038.9877,0 1182.5483,0.22277 1181.9299,1.83407 -0.9322,2.42939 -1175.7753,2019.73785 -1177.0406,2021.08195 -0.5391,0.5726 -3.7892,-3.6461 -7.2226,-9.375 z m 34.6797,-211.2258 c 13.6376,-23.6043 24.5451,-43.3222 24.2389,-43.8176 -0.8687,-1.4056 -26.2717,-9.318 -36.9788,-11.518 -13.7815,-2.8316 -23.8687,-2.5134 -36.518,1.1523 -11.2485,3.2597 -26.9722,9.8466 -26.9722,11.2992 0,1.2545 50.5601,86.6596 51.0298,86.1985 0.2226,-0.2186 11.5628,-19.7101 25.2003,-43.3144 z m -80.8539,-111.1495 c 15.2619,-5.5462 31.1238,-10.8926 35.2488,-11.8806 10.8215,-2.592 32.0675,-3.553 44.375,-2.0071 42.5389,5.343 60.2119,7.8645 63.2695,9.027 2.9481,1.1209 3.8045,0.9691 5.1869,-0.9187 3.051,-4.1672 22.7936,-38.8393 22.7936,-40.0304 0,-0.6472 -2.9531,-1.8585 -6.5625,-2.6922 -12.3125,-2.8437 -20.1026,-3.0279 -33.4272,-0.7905 -18.7382,3.1467 -35.5333,2.1483 -51.8853,-3.0841 -14.9983,-4.7992 -23.5572,-4.686 -44.375,0.5874 -9.7777,2.4767 -18.7039,3.6482 -35,4.5933 -12.0312,0.6976 -24.7784,1.807 -28.3269,2.4649 -5.9968,1.1122 -26.6731,10.1405 -26.6731,11.6468 0,0.5526 12.2516,21.5991 22.7644,39.106 1.3417,2.2344 2.9848,4.0625 3.6513,4.0625 0.6665,0 13.6987,-4.5379 28.9605,-10.0843 z m -74.5558,-101.9036 c 9.8212,-2.9272 14.1927,-3.408 39.1796,-4.3091 17.7472,-0.64 30.4312,-1.6762 34.375,-2.8082 3.4375,-0.9868 11.1546,-3.2561 17.149,-5.0428 24.6318,-7.3419 49.1036,-7.6184 68.1485,-0.77 22.9056,8.2368 32.2028,10.1856 51.5775,10.8115 14.053,0.454 20.2311,0.1163 27.5,-1.5013 5.1563,-1.1477 17.3096,-2.3991 27.0076,-2.7807 l 17.6327,-0.694 11.3168,-19.5212 11.3169,-19.5213 -5.8245,-1.4425 c -9.8936,-2.4502 -20.8238,-1.8889 -38.164,1.9601 -31.7937,7.0572 -40.3922,6.3945 -78.6951,-6.065 -30.5209,-9.928 -40.419,-11.8337 -57.0331,-10.9805 -14.6983,0.7549 -22.0538,2.7301 -46.3073,12.4353 l -15.625,6.2523 -14.375,-1.0798 c -7.9062,-0.5939 -22.5312,-1.0799 -32.5,-1.0799 l -18.125,0 -10,4.7604 c -11.0979,5.2831 -25.9131,14.5111 -25.3579,15.7947 0.1969,0.4551 4.5495,7.9253 9.6726,16.6004 l 9.3148,15.7729 3.3806,-1.7483 c 1.8594,-0.9615 8.3552,-3.2309 14.4353,-5.043 z m -69.84135,-97.2255 c 3.24275,-1.6299 10.39595,-4.5495 15.89595,-6.4881 12.9242,-4.5555 31.568,-5.4169 55.0504,-2.5432 18.815,2.3025 31.1748,2.5233 40.7165,0.7276 3.7032,-0.697 20.2331,-5.715 36.7331,-11.1512 17.6459,-5.8137 34.3111,-10.5081 40.4689,-11.3995 20.2371,-2.9297 39.488,0.4252 78.9061,13.7506 14.0938,4.7643 28.6058,9.2598 32.249,9.9898 10.2494,2.0538 29.1816,1.5843 42.5546,-1.0552 18.0812,-3.5689 28.0245,-4.1162 44.5807,-2.4538 24.6148,2.4716 20.8588,4.2865 32.6756,-15.7886 5.6655,-9.625 10.3322,-17.9529 10.3706,-18.5063 0.1814,-2.6252 -24.2596,-10.8687 -32.2244,-10.8687 -2.0943,0 -12.7007,2.3572 -23.5696,5.2384 -18.462,4.8938 -20.8712,5.2412 -36.6365,5.2823 -19.5494,0.051 -22.0069,-0.5061 -55.5142,-12.5811 -34.12,-12.2957 -40.0719,-13.5509 -63.8608,-13.4666 l -20,0.071 -19.945,5.8593 c -30.2818,8.896 -38.3046,10.069 -69.43,10.151 -19.2682,0.051 -32.1605,-0.5964 -45.549,-2.2864 -30.2221,-3.8149 -45.6659,-1.4606 -76.42131,11.6498 -20.49395,8.7361 -19.91105,6.0945 -6.42215,29.1048 6.3346,10.8062 11.95804,19.6655 12.49651,19.6875 0.53849,0.023 3.63224,-1.2933 6.875,-2.9232 z m -60.84526,-105.8541 c 32.56704,-16.4399 81.68891,-22.2591 121.11621,-14.3481 11.8944,2.3865 22.4514,3.5813 35.7685,4.0482 22.348,0.7834 32.4277,-0.8397 52.8478,-8.5099 19.9719,-7.5017 31.5418,-10.1572 47.0087,-10.7893 16.8925,-0.6903 26.0588,1.0831 45.6689,8.8356 28.8985,11.4246 48.6091,15.7076 76.8311,16.6951 17.2974,0.6053 19.8638,0.3947 33.125,-2.7187 7.9063,-1.8561 20.2813,-4.7458 27.5,-6.4214 26.8673,-6.2364 50.6731,-5.2012 78.089,3.3956 8.7643,2.7482 11.5924,3.2 12.6573,2.0222 2.1427,-2.3699 25.5037,-43.1944 25.5037,-44.5689 0,-4.0846 -30.9384,-8.1529 -54.8785,-7.2161 -15.0676,0.5895 -19.4081,1.3152 -38.2465,6.3948 -30.4687,8.2158 -40.6641,9.8152 -62.5,9.8042 -27.924,-0.014 -46.5647,-3.6825 -93.75,-18.4503 -16.5,-5.164 -35.0433,-10.319 -41.2073,-11.4555 -15.1926,-2.8011 -23.4778,-1.295 -45.5504,8.2808 -26.9278,11.682 -28.3962,11.9573 -63.2423,11.863 -26.025,-0.07 -34.3062,-0.6195 -62.5,-4.1433 -42.60721,-5.3254 -61.66021,-6.1802 -75.45144,-3.3859 -11.3645,2.3028 -23.93621,6.9424 -37.99346,14.0215 -14.28812,7.1954 -14.89225,7.7053 -12.90334,10.8902 0.9269,1.4843 6.55773,10.9956 12.51293,21.1362 5.95521,10.1406 11.09854,18.4375 11.42962,18.4375 0.33109,0 4.0051,-1.7179 8.16448,-3.8175 z M 733.4279,1696.0595 c 29.80388,-13.0771 60.37842,-20.8482 86.875,-22.0807 18.52807,-0.8619 27.8036,0.4069 60.625,8.2923 35.6234,8.5586 46.9407,10.386 65,10.4955 19.1351,0.1162 25.154,-1.1528 50.5807,-10.6614 26.5101,-9.9137 38.1491,-12.6641 53.7943,-12.7119 14.9344,-0.046 21.8093,1.4669 40,8.8009 27.0428,10.9027 52.821,15.8272 90.625,17.3121 24.2728,0.9535 33.6953,-0.217 70.2073,-8.7212 31.2993,-7.2902 45.0983,-9.457 60.2607,-9.4633 15.5004,0 36.3554,4.0916 60.673,11.9219 11.2809,3.6325 18.3524,5.3297 19.0982,4.5839 3.4964,-3.4964 29.1609,-49.7343 27.9834,-50.4158 -2.5418,-1.4711 -38.8469,-9.8126 -53.6593,-12.3289 -27.2851,-4.635 -40.6827,-3.4534 -83.3133,7.3479 -29.8255,7.5569 -49.0266,10.136 -75.46,10.136 -32.3437,0 -48.9949,-2.7776 -94.2817,-15.7274 -38.5092,-11.0117 -45.4376,-12.3409 -64.0083,-12.2802 -18.6139,0.061 -30.0992,2.24 -68.8008,13.053 -37.5794,10.4995 -50.9343,12.9773 -69.9492,12.9782 -18.7836,9e-4 -23.5898,-0.9819 -55,-11.2464 -39.42815,-12.8847 -43.1926,-13.6195 -69.375,-13.5421 -21.06339,0.062 -23.41784,0.3121 -36.875,3.9125 -7.90625,2.1152 -19.15625,5.6033 -25,7.7513 -12.73549,4.6811 -34.42174,15.3026 -34.25877,16.7793 0.30105,2.7281 30.03777,51.9178 31.13377,51.5008 0.6875,-0.2617 6.59375,-2.8205 13.125,-5.6862 z m -5,-91.2853 c 7.90625,-1.9452 16.48437,-3.882 19.0625,-4.3037 l 4.6875,-0.767 0,-192.4434 0,-192.4433 -21.25,0 -21.25,0 0,197.6337 c 0,187.7271 0.10963,197.5893 2.1875,196.7472 1.20312,-0.4877 8.65625,-2.4782 16.5625,-4.4235 z m 633.75,-1.7838 c 7.2188,-0.027 16.3594,0.3782 20.3125,0.8998 l 7.1875,0.9484 0,-195.0109 0,-195.0109 -24.375,0 -24.375,0 0,194.9687 0,194.9688 4.0625,-0.8577 c 2.2344,-0.4717 9.9688,-0.8795 17.1875,-0.9062 z m 132.9283,-84.5388 c 14.8895,-25.8447 27.0717,-47.3603 27.0717,-47.8125 0,-0.4523 -12.6562,-0.8223 -28.125,-0.8223 l -28.125,0 0,49 c 0,26.95 0.474,48.4656 1.0533,47.8125 0.5792,-0.6531 13.2355,-22.3331 28.125,-48.1777 z m -861.6783,-4.2598 0,-44.375 -26.25,0 c -14.4375,0 -26.25,0.2926 -26.25,0.6502 0,0.9432 51.47471,88.0998 52.03179,88.0998 0.25751,0 0.46821,-19.9687 0.46821,-44.375 z m 275,16.875 0,-16.25 -40,0 -40,0 0,16.25 0,16.25 40,0 40,0 0,-16.25 z m 178.75,0 0,-16.25 -42.5,0 -42.5,0 0,16.25 0,16.25 42.5,0 42.5,0 0,-16.25 z m 177.5,0 0,-16.25 -42.5,0 -42.5,0 0,16.25 0,16.25 42.5,0 42.5,0 0,-16.25 z M 859.3627,1411.3097 c 10.1864,-20.6966 21.4895,-36.3739 38.4619,-53.3462 28.2251,-28.2252 63.4674,-47.7325 100.9119,-55.857 l 13.4336,-2.9147 0,-19.6875 0,-19.6875 -51.875,0 c -28.5312,0 -51.8432,-0.4219 -51.8044,-0.9375 0.069,-0.9187 140.1693,-106.8508 142.2186,-107.5339 1.2349,-0.4116 143.1446,105.4605 143.7524,107.2469 0.2675,0.7862 -17.966,1.2245 -50.9375,1.2245 l -51.3541,0 0,21.0573 0,21.0573 9.6875,2.7858 c 56.9567,16.3786 105.9883,57.721 130.949,110.4135 l 5.7725,12.1861 13.0455,0 13.0455,0 0,-138.75 0,-138.75 -26.25,0 -26.25,0 0,-29.375 0,-29.375 -161.25,0 -161.25,0 0,29.375 0,29.375 -30.625,0 -30.625,0 0,138.75 0,138.75 11.5625,-0.07 11.5625,-0.07 7.8098,-15.8679 z M 1817.7158,959.981 c 137.9577,-238.81592 250.6173,-434.42564 250.3547,-434.68826 -0.2626,-0.26261 -460.6205,-0.33651 -1023.0175,-0.16422 l -1022.54003,0.31326 258.88063,438.4375 258.88063,438.43752 46.57683,0 46.57684,0 0,-93.75 0,-93.75 -75,0 -75,0 0,-33.75 0,-33.75 50,0 50,0 0,-29.375 0,-29.375 -50,0 -50,0 0,-18.75 0,-18.75 -40.625,0 -40.625,0 0,-38.75 0,-38.75002 150,0 150,0 0,-24.375 0,-24.375 40,0 40,0 0,-20 0,-20 38.75,0 38.75,0 0,-23.75 0,-23.75 188.75,0 188.75,0 0,23.75 0,23.75 38.75,0 38.75,0 0,20 0,20 40,0 40,0 0,24.375 0,24.375 153.125,0 153.125,0 0,38.75002 0,38.75 -41.25,0 -41.25,0 0,18.75 0,18.75 -50.625,0 -50.625,0 0,29.375 0,29.375 50.625,0 50.625,0 0,33.75 0,33.75 -76.25,0 -76.25,0 0,93.7351 0,93.7352 47.8125,0.3273 47.8125,0.3274 2.6654,-4.375 c 1.4659,-2.4063 115.5397,-199.7699 253.4975,-438.5858 z m -175.8913,-46.28596 c -58.9757,-26.0114 -107.563,-47.62799 -107.9718,-48.03687 -0.6729,-0.6728 83.9377,-206.42094 85.8118,-208.66934 0.6168,-0.73991 225.5942,90.49207 227.2595,92.1574 0.2198,0.2197 -20.8707,47.84396 -46.8676,105.83169 -29.7461,66.35063 -47.9596,105.53942 -49.1352,105.72141 -1.0275,0.15904 -50.1211,-20.99289 -109.0967,-47.00429 z m 126.5724,-72.42362 c 18.69,-40.79369 33.7961,-74.35074 33.569,-74.57122 -1.3556,-1.3158 -163.9629,-65.62522 -164.5216,-65.0665 -0.8998,0.89978 -65,144.96502 -64.6806,145.36975 1.0598,1.34325 160.2231,69.85983 160.8452,69.2406 0.4432,-0.44125 16.0979,-34.17893 34.788,-74.97263 z m -73.0436,54.85168 c -15.7848,-7.43434 -29.9879,-14.66453 -31.5625,-16.06707 -3.7826,-3.36928 -3.6735,-8.18801 0.4166,-18.40495 1.8038,-4.5056 3.0694,-8.33847 2.8125,-8.51751 -0.2569,-0.17903 -1.6691,-0.85793 -3.1382,-1.50865 -2.6577,-1.17704 -2.6477,-1.23788 1.933,-11.80814 4.1606,-9.60109 4.9601,-10.6623 8.2962,-11.01201 3.5718,-0.37442 4.0534,-1.28167 14.7898,-27.86054 6.1038,-15.11044 10.8851,-27.63211 10.625,-27.82595 -0.2601,-0.19383 -17.4543,-7.26465 -38.2094,-15.71294 l -37.7367,-15.36051 2.9117,-6.42653 c 1.6015,-3.53458 4.1192,-9.08558 5.595,-12.33553 l 2.6834,-5.90903 5.2666,2.09131 c 2.8966,1.15022 19.7918,8.11994 37.545,15.48829 l 32.2782,13.39698 2.4878,-5.80365 c 1.3682,-3.19202 2.6633,-5.9793 2.878,-6.19397 0.3523,-0.3524 25.8524,9.46922 26.6715,10.27287 0.1892,0.18555 -0.8094,3.02785 -2.2189,6.31621 -1.4095,3.28836 -2.4081,6.10894 -2.2189,6.26795 1.2458,1.04725 8.5815,4.35705 9.6568,4.35705 0.759,0 1.3121,-2.93359 1.3121,-6.95924 0,-6.29857 0.2282,-6.88677 2.4049,-6.19597 1.3226,0.4198 7.0882,2.33524 12.8125,4.25655 l 10.4076,3.49328 0.3624,9.42922 0.3625,9.42921 5.6888,1.59279 c 3.1289,0.87602 5.9654,2.31343 6.3034,3.19425 0.932,2.42886 -6.1346,23.00991 -7.9006,23.00991 -0.8488,0 -12.6349,-4.52291 -26.1914,-10.05093 -13.5565,-5.52801 -25.124,-9.57516 -25.7055,-8.99366 -0.5815,0.5815 -5.5026,12.12353 -10.9359,25.64895 l -9.8786,24.59166 4.5724,1.27002 c 2.5149,0.69851 5.1885,1.27316 5.9412,1.27698 2.7197,0.0139 5.8072,-5.05333 13.8185,-22.67898 4.4847,-9.86648 8.6123,-18.4179 9.1725,-19.00318 0.5602,-0.58527 7.2062,1.30749 14.7687,4.20615 l 13.75,5.2703 -4.7167,10.16885 c -15.6141,33.66316 -22.5296,46.75165 -25.852,48.92853 -5.6802,3.72188 -13.5928,3.75902 -26.927,0.12638 -6.5837,-1.79358 -12.5975,-3.26107 -13.364,-3.26107 -0.7666,0 -1.3937,1.58623 -1.3937,3.52494 0,3.33631 1.0774,4.02188 20.1357,12.8125 11.0747,5.10816 20.4023,9.95446 20.7279,10.76955 0.8701,2.17795 -8.6674,19.7296 -10.8636,19.99217 -1.0313,0.12325 -14.7898,-5.85849 -30.5746,-13.29284 z m -80.0504,-38.99162 c -17.875,-8.31448 -32.9132,-15.49051 -33.4182,-15.94675 -1.0167,-0.9183 7.6522,-22.61795 9.0356,-22.61795 2.7133,0 65.6926,30.05687 65.9857,31.49167 0.1943,0.95084 -1.7745,6.33262 -4.375,11.95953 l -4.7281,10.23072 -32.5,-15.11722 z m 11.9639,-31.52551 c -16.7948,-7.70313 -30.7395,-14.6161 -30.9883,-15.36218 -0.2486,-0.74606 5.4516,-14.22547 12.6673,-29.95425 9.1294,-19.90005 13.7272,-28.59776 15.1177,-28.59776 3.2068,0 61.7946,24.87289 61.8318,26.25 0.047,1.74226 -26.6986,61.88576 -27.4674,61.76669 -0.3437,-0.0532 -14.3662,-6.39938 -31.1611,-14.1025 z m 25.7091,-26.53079 c 2.412,-5.22039 4.2035,-9.66346 3.9812,-9.8735 -0.6325,-0.59749 -23.1578,-10.6349 -23.8663,-10.6349 -0.8162,0 -8.8853,19.9812 -8.2604,20.4547 1.0547,0.7992 21.7967,9.4694 22.7414,9.50591 0.5603,0.0216 2.9922,-4.23183 5.4041,-9.45221 z M 312.28641,847.82179 c -29.0777,-58.84725 -52.38815,-107.41525 -51.80102,-107.9289 1.63763,-1.43268 66.6427,-26.79828 67.1799,-26.21425 1.05839,1.15064 10.76261,21.16544 10.76261,22.19771 0,0.61328 -4.6119,2.78959 -10.24866,4.83623 -5.63677,2.04664 -10.4256,4.25198 -10.64185,4.90072 -0.21625,0.64877 0.33482,2.17518 1.22461,3.39204 1.52699,2.08829 2.23332,1.98976 12.58302,-1.7552 6.03088,-2.18222 11.1513,-3.76309 11.37874,-3.51302 1.06289,1.16862 10.70414,21.16311 10.70414,22.19875 0,0.64601 -5.02198,2.97097 -11.15994,5.16658 -10.85405,3.88259 -11.12265,4.07387 -9.79936,6.97817 1.69907,3.72906 2.03615,3.70896 13.4593,-0.80228 5.15625,-2.0363 9.95276,-3.70444 10.65892,-3.70697 1.16695,-0.004 11.84108,20.02072 11.84108,22.21412 0,0.51258 -5.00053,2.8652 -11.11228,5.22804 l -11.11226,4.29609 1.97989,4.15187 c 1.08895,2.28353 2.33305,4.00077 2.76469,3.81608 0.43163,-0.18468 9.00546,-3.71079 19.05295,-7.83579 l 18.26816,-7.5 2.05057,-7.29969 c 1.12782,-4.01482 1.86669,-7.46637 1.64193,-7.67011 -1.65267,-1.49814 -31.39473,-15.6552 -32.88943,-15.6552 -2.41459,0 -2.58136,1.08051 2.97992,-19.30816 l 4.75511,-17.43316 -17.93963,-8.72897 c -9.86678,-4.80092 -17.93031,-9.04975 -17.91893,-9.44184 0.0113,-0.39207 6.57865,-3.3443 14.59395,-6.56047 l 14.57328,-5.8476 5.98948,3.0351 c 3.29423,1.6693 6.27373,3.0351 6.62113,3.0351 0.3474,0 1.5022,-2.95313 2.56621,-6.5625 l 1.93457,-6.5625 14.57932,-5.91686 c 8.01862,-3.25428 14.73288,-5.76329 14.92057,-5.5756 0.1877,0.1877 -1.87465,8.43785 -4.58299,18.33367 -2.70833,9.89584 -4.79306,18.1208 -4.63272,18.27773 0.73832,0.72259 25.87661,12.72716 30.60401,14.61469 4.95993,1.98036 6.64648,3.87618 4.31435,4.84971 -0.90225,0.37664 -9.00185,29.08077 -9.00185,31.90161 0,0.64921 3.23437,2.72436 7.1875,4.61146 l 7.1875,3.43108 20,-8.34185 c 11,-4.58801 21.24408,-8.81895 22.76461,-9.40209 2.46729,-0.94624 2.62218,-1.46884 1.44022,-4.8594 -0.72842,-2.08954 -1.7795,-3.79915 -2.33574,-3.79915 -0.55625,0 -7.05307,2.53125 -14.43738,5.625 -7.3843,3.09375 -13.93116,5.625 -14.54858,5.625 -1.21172,0 -11.00813,-20.4991 -11.00813,-23.03463 0,-0.84463 6.56345,-4.02583 14.58544,-7.06933 8.02199,-3.0435 14.77956,-6.11605 15.01685,-6.82789 0.23727,-0.71184 -0.29931,-2.29356 -1.19243,-3.51496 -1.52725,-2.08865 -2.54814,-1.88505 -17.16492,3.4233 -8.5476,3.10421 -15.59486,5.53253 -15.6606,5.39627 -1.16959,-2.42477 -9.33434,-23.04965 -9.33434,-23.57937 0,-0.40563 6.75,-3.17154 15,-6.14647 14.8375,-5.35036 16.59515,-6.70222 14.00729,-10.77341 -0.68998,-1.08547 -5.10045,0.37755 -15.91835,5.28043 -8.23017,3.73005 -15.52644,6.79431 -16.21394,6.80947 -1.11313,0.0245 -9.98791,-20.28379 -9.99655,-22.87526 -0.005,-1.47305 77.24061,-30.99931 78.18199,-29.88421 0.60982,0.72237 87.47551,207.38081 90.54615,215.41446 0.61254,1.60256 -3.54149,3.74702 -21.18702,10.9375 -12.07191,4.91925 -22.39662,8.9441 -22.9438,8.9441 -0.54716,0 -9.86649,-22.19293 -20.70961,-49.31762 l -19.71476,-49.31762 -5.8382,2.31555 c -11.93126,4.7322 -122.1443,50.34035 -123.59765,51.14697 -1.05043,0.58297 5.33454,15.41697 20.99619,48.77987 12.3781,26.36817 22.33861,48.06184 22.13445,48.20814 -0.64614,0.46303 -44.54005,18.18471 -45.04079,18.18471 -0.2631,0 -24.2692,-48.14775 -53.34689,-106.99499 z m 88.22354,-94.73167 1.25324,-5.47666 -5.45597,-2.65072 c -4.02347,-1.95475 -5.584,-2.23983 -5.94361,-1.08583 -0.2682,0.86068 -1.01427,3.25237 -1.65793,5.31487 -1.10613,3.54441 -0.88884,3.9011 3.96347,6.50601 2.82356,1.51582 5.46086,2.78144 5.86065,2.8125 0.3998,0.0311 1.29086,-2.40801 1.98015,-5.42017 z m 19.71052,173.55705 c -0.98591,-2.38172 -2.63632,-6.36784 -3.66757,-8.85804 -1.03125,-2.49021 -1.875,-5.23694 -1.875,-6.10383 0,-0.86689 6.89062,-4.25236 15.3125,-7.52324 8.42187,-3.27089 15.54851,-6.15081 15.83697,-6.39981 0.67959,-0.58666 -5.09773,-12.94595 -6.05065,-12.94397 -0.3981,8.2e-4 -8.79053,3.37583 -18.64983,7.5 -9.85932,4.12417 -18.60298,7.4985 -19.43037,7.4985 -1.52973,0 -12.96052,-21.9839 -11.94721,-22.97709 0.30448,-0.29842 8.69273,-3.90075 18.64058,-8.00519 17.00784,-7.01734 18.1491,-7.70232 19.12816,-11.48065 0.57265,-2.20993 0.87101,-4.45216 0.66301,-4.98272 -0.20799,-0.53055 -8.79707,2.60564 -19.08686,6.9693 -10.28979,4.36368 -19.0766,7.52161 -19.52626,7.01765 -2.09007,-2.34246 -11.02189,-24.65877 -10.1973,-25.47814 1.27261,-1.26456 101.46575,-42.31316 103.27974,-42.31316 0.79625,0 3.23486,5.03752 5.41914,11.19451 l 3.97143,11.19451 -5.93316,9.11799 c -3.26323,5.01489 -6.36335,9.82756 -6.88915,10.69481 -0.96787,1.59642 3.10961,0.19943 19.26647,-6.60089 4.25469,-1.79078 8.40193,-3.00034 9.21608,-2.68793 1.31746,0.50556 9.47671,19.45824 9.47671,22.01294 0,0.55884 -6.74328,3.75723 -14.98505,7.10756 -8.24178,3.35033 -14.99178,6.51725 -15,7.03761 -0.009,0.52038 3.4316,7.45194 7.64405,15.4035 4.22101,7.96772 7.16681,14.90268 6.5625,15.44938 -0.60308,0.54561 -18.71171,8.07834 -40.24143,16.7394 l -39.14491,15.7474 -1.79259,-4.3304 z m 986.09183,-91.00595 c -62.0073,-13.89515 -113.0553,-25.57868 -113.44,-25.96339 -0.3848,-0.3847 1.3709,-10.63582 3.9012,-22.78026 3.6208,-17.37809 5.019,-22.06964 6.565,-22.02844 1.0804,0.0288 8.7915,1.62179 17.1358,3.53997 l 15.1712,3.48762 2.099,-13.85248 c 3.1444,-20.75146 9.0415,-50.1328 12.3378,-61.47065 l 2.9215,-10.04919 -16.6809,-3.56278 c -13.706,-2.92741 -16.5713,-3.91563 -16.0666,-5.54132 0.3378,-1.08818 2.5425,-11.15946 4.8992,-22.3806 2.3566,-11.22115 4.492,-20.60923 4.7453,-20.86242 0.2531,-0.25319 20.6484,4.02662 45.3226,9.51071 24.6742,5.48409 45.2394,9.52843 45.7005,8.98743 0.461,-0.541 2.9016,-7.96923 5.4237,-16.50718 2.5222,-8.53795 4.8094,-15.74722 5.0828,-16.02061 0.4807,-0.48074 53.4059,12.07553 54.33,12.88956 0.2517,0.22168 -1.0163,7.04089 -2.8176,15.15382 -1.8014,8.11292 -3.2729,15.61937 -3.27,16.681 0,1.50632 7.2112,3.52301 32.8176,9.18292 18.0469,3.98899 36.5134,8.08163 41.0366,9.09474 l 8.2243,1.84202 -5.293,21.87715 c -2.9111,12.03243 -5.6455,22.22978 -6.0765,22.66078 -0.6939,0.69387 -19.9225,-2.76178 -23.9347,-4.30139 -1.0417,-0.39974 -2.0292,1.80255 -2.9971,6.68368 -2.3824,12.01456 -9.5467,38.81758 -15.4979,57.97941 -3.5153,11.31911 -5.1215,18.30636 -4.3216,18.8007 0.7001,0.43268 7.4651,2.08611 15.0333,3.67426 7.5681,1.58815 13.9726,3.49233 14.2321,4.23152 0.2595,0.73919 -1.9403,10.90551 -4.8883,22.59181 -3.6835,14.60192 -5.9221,21.32096 -7.1573,21.48167 -0.9885,0.12861 -52.5307,-11.13491 -114.538,-25.03006 z m 44.257,-48.94944 c 7.2355,-21.20974 21.2254,-72.90954 19.9851,-73.85541 -0.1383,-0.1055 -13.7515,-3.15818 -30.2515,-6.78369 -16.5,-3.62551 -30.6675,-6.83953 -31.4834,-7.14225 -1.738,-0.64488 -3.9398,6.24258 -8.5102,26.62055 -3.1898,14.22204 -8.8058,45.95206 -9.5953,54.21234 l -0.4111,4.30152 26.25,5.88707 c 14.4375,3.23788 27.3258,5.80218 28.6406,5.69846 1.7867,-0.14094 3.145,-2.39955 5.3758,-8.93859 z m -849.0164,51.57708 c -12.375,-4.8938 -22.72028,-9.06469 -22.9895,-9.26862 -0.26923,-0.20393 3.04061,-8.11832 7.35519,-17.58752 13.09262,-28.73436 23.24907,-56.76092 26.09811,-72.01735 0.9924,-5.3142 0.88131,-5.97829 -0.91734,-5.48393 -1.12555,0.30935 -12.62622,3.53173 -25.55704,7.16083 -13.5396,3.79995 -23.95017,6.12572 -24.5471,5.48394 -1.35722,-1.45923 -15.51016,-40.46327 -14.90281,-41.07062 0.2565,-0.25649 15.09004,-4.53819 32.96343,-9.51487 17.87338,-4.97669 32.67986,-9.18941 32.90327,-9.36162 0.68048,-0.52447 -4.53884,-29.73978 -7.36121,-41.20467 -1.45855,-5.92482 -2.39804,-11.02628 -2.08775,-11.33656 0.8056,-0.8056 47.99085,-14.25499 49.9304,-14.23185 0.96536,0.0112 5.06951,9.91782 10.22792,24.6875 4.73857,13.56753 8.76025,24.84618 8.93707,25.06366 0.17682,0.21746 17.82266,-4.50969 39.21298,-10.50478 21.39033,-5.99508 39.0872,-10.67302 39.32639,-10.3954 0.23918,0.27763 3.57418,9.95689 7.4111,21.50946 4.78099,14.39506 6.50746,21.1583 5.48655,21.49283 -0.81931,0.26848 -16.95734,4.78404 -35.86226,10.03458 -18.90493,5.25055 -34.5523,9.72615 -34.77194,9.94578 -0.21965,0.21964 5.12303,4.06907 11.8726,8.55427 16.03246,10.65383 41.74121,24.30991 70.08444,37.22771 12.54687,5.7184 22.8125,10.85197 22.8125,11.40795 0,3.02397 -16.83628,45.9572 -18.02212,45.9572 -8.23522,0 -90.76983,-39.05843 -112.79182,-53.37724 -2.61051,-1.69737 -2.78876,-1.44579 -6.11237,8.62694 -6.82144,20.67344 -32.73709,77.37999 -35.27014,77.17525 -0.5107,-0.0413 -11.05355,-4.07908 -23.42855,-8.97287 z m 272.8125,-36.62927 c -12.8906,-6.50967 -23.4375,-12.17496 -23.4375,-12.58955 0,-0.41457 2.74776,-4.20853 6.10615,-8.43102 6.83735,-8.59655 18.89385,-25.83513 18.89385,-27.01469 0,-0.42201 -12.6532,0.61867 -28.1183,2.31261 -15.46506,1.69395 -28.3704,2.8278 -28.67854,2.51968 -0.62085,-0.62087 -6.95316,-37.23547 -6.95316,-40.20453 0,-1.44344 2.42197,-2.07137 10.625,-2.75467 6.76445,-0.56348 10.60873,-1.41202 10.58021,-2.33535 -0.0246,-0.79767 -2.19992,-17.76279 -4.83396,-37.70029 -2.63405,-19.9375 -4.44201,-36.5917 -4.01771,-37.00934 0.4243,-0.41764 14.97459,-2.62611 32.33396,-4.90771 l 31.5625,-4.14838 -0.022,-3.21728 c -0.012,-1.76952 -0.846,-8.56104 -1.8526,-15.09229 -1.0066,-6.53125 -1.8402,-13.02061 -1.8526,-14.42081 -0.021,-2.36198 1.7941,-2.80037 25.1337,-6.07115 19.5764,-2.74342 25.3676,-3.18318 26.1096,-1.98264 0.5244,0.84849 1.977,8.78725 3.228,17.64167 l 2.2746,16.09898 3.8033,-0.63294 c 10.5451,-1.75486 60.987,-8.24115 61.3405,-7.88771 0.3524,0.35249 13.0879,77.60216 13.0879,79.38779 0,0.36328 4.2188,0.2652 9.375,-0.21798 8.5695,-0.80304 9.3796,-0.68141 9.4285,1.41564 0.029,1.26179 1.0588,10.64535 2.2876,20.85239 1.5558,12.92378 1.8242,18.68326 0.884,18.97005 -0.7425,0.2265 -13.2942,1.67241 -27.8925,3.21316 -23.8518,2.51737 -26.2828,2.98316 -23.9816,4.59501 1.4085,0.98651 11.8057,6.26321 23.1049,11.72601 11.2993,5.46279 20.5441,10.1928 20.5441,10.51113 0,1.79127 -25.5018,39.3014 -26.7196,39.3014 -0.8049,0 -8.1946,-3.40218 -16.4215,-7.5604 -16.2153,-8.19589 -39.0145,-22.85398 -48.3007,-31.05346 -3.1993,-2.82488 -6.1015,-5.13614 -6.4495,-5.13614 -0.348,0 -3.0129,4.35938 -5.9221,9.6875 -7.1032,13.00953 -18.4556,29.48906 -25.8015,37.45429 l -6.0101,6.51679 -23.4375,-11.83577 z m 18.7835,-112.15017 0.346,-18.45235 -7.221,0.74424 c -3.9715,0.40932 -7.8389,0.92815 -8.5941,1.15292 -0.9677,0.28806 -0.7082,5.33085 0.8793,17.08313 1.2388,9.17093 2.2786,17.12712 2.3106,17.68041 0.032,0.5533 2.7301,0.83455 5.9957,0.625 l 5.9375,-0.38099 0.346,-18.45236 z m 66.8415,10.95336 c 5.1183,-0.50045 8.4465,-1.40052 8.4605,-2.28799 0.013,-0.80466 -1.2033,-8.95117 -2.7021,-18.10336 l -2.725,-16.64036 -8.2354,0.85677 c -4.5295,0.47124 -8.3641,0.96304 -8.5214,1.09291 -0.1572,0.12988 0.071,8.50809 0.5081,18.61825 0.6903,15.98362 1.0538,18.31079 2.7859,17.83544 1.0955,-0.30069 5.7888,-0.91792 10.4294,-1.37166 z m 220.3848,107.93049 c -16.4603,-1.30364 -30.1749,-2.61746 -30.477,-2.91961 -0.3022,-0.30214 0.09,-10.80351 0.872,-23.33636 0.7816,-12.53285 0.9963,-23.1522 0.477,-23.59855 -0.5194,-0.44635 -18.9397,-1.78533 -40.9339,-2.97552 -21.9943,-1.1902 -40.0274,-2.26241 -40.0736,-2.38271 -0.1266,-0.32987 6.0475,-137.68513 6.2002,-137.93675 0.073,-0.11988 17.8468,0.84781 39.4976,2.15048 21.651,1.30268 40.5589,2.38517 42.0175,2.40552 2.5234,0.0353 2.6957,-0.75168 3.5508,-16.21299 l 0.8987,-16.25 6.4491,0.0859 c 10.6685,0.142 54.4448,3.10764 54.9087,3.7198 0.2374,0.31314 0.043,7.6006 -0.4315,16.19435 -0.4746,8.59375 -0.7299,15.77634 -0.5674,15.96132 0.1625,0.18497 17.2663,1.28462 38.0083,2.44367 20.742,1.15904 38.3265,2.48668 39.0766,2.95029 0.9657,0.59687 -0.3079,20.64072 -4.363,68.66195 -3.1499,37.30046 -5.8856,67.97692 -6.0797,68.16994 -0.1939,0.19301 -17.0871,-0.59607 -37.5402,-1.7535 l -37.1875,-2.10443 -0.013,16.27288 c -0.013,20.46298 -1.1635,33.19926 -2.9844,32.98625 -0.76,-0.0889 -14.8492,-1.22825 -31.3095,-2.53188 z m 64.3187,-96.99399 c 0.012,-0.51563 0.8189,-9.64309 1.8001,-20.28325 0.9813,-10.64016 1.647,-19.48285 1.4794,-19.65041 -0.1675,-0.16755 -6.5396,-0.68334 -14.16,-1.14616 l -13.8555,-0.84153 -0.919,19.60878 c -0.5054,10.78483 -0.6091,19.91861 -0.2304,20.29731 0.3787,0.37869 5.9323,1.11782 12.3414,1.64251 6.4091,0.5247 12.0749,1.03415 12.5905,1.13213 0.5156,0.098 0.9448,-0.24376 0.9535,-0.75938 z m -88.1779,-25.39763 c 0.4996,-10.35931 0.6656,-19.07775 0.3692,-19.37431 -0.2967,-0.29655 -7.3106,-0.90327 -15.5864,-1.34827 l -15.0473,-0.80908 -0.8212,13.62089 c -0.4517,7.4915 -1.1359,16.26466 -1.5205,19.49594 l -0.6993,5.87502 7.9212,0.44663 c 4.3567,0.24564 11.6461,0.555 16.1987,0.68746 l 8.2774,0.24085 0.9082,-18.83512 z"
         style="fill:#da0028" />
      <path
         inkscape:connector-curvature="0"
         id="path6996"
         d="M 1047.4783,2440.8578 C 1031.8993,2414.8633 -132.8221,428.53809 -132.8221,427.96416 c 0,-0.35606 532.18517,-0.64738 1182.6337,-0.64738 1038.9877,0 1182.5483,0.22277 1181.9299,1.83407 -0.9322,2.42939 -1175.7753,2019.73785 -1177.0406,2021.08195 -0.5391,0.5726 -3.7892,-3.6461 -7.2226,-9.375 z m 34.6797,-211.2258 c 13.6376,-23.6043 24.5451,-43.3222 24.2389,-43.8176 -0.8687,-1.4056 -26.2717,-9.318 -36.9788,-11.518 -13.7815,-2.8316 -23.8687,-2.5134 -36.518,1.1523 -11.2485,3.2597 -26.9722,9.8466 -26.9722,11.2992 0,1.2545 50.5601,86.6596 51.0298,86.1985 0.2226,-0.2186 11.5628,-19.7101 25.2003,-43.3144 z m -80.8539,-111.1495 c 15.2619,-5.5462 31.1238,-10.8926 35.2488,-11.8806 10.8215,-2.592 32.0675,-3.553 44.375,-2.0071 42.5389,5.343 60.2119,7.8645 63.2695,9.027 2.9481,1.1209 3.8045,0.9691 5.1869,-0.9187 3.051,-4.1672 22.7936,-38.8393 22.7936,-40.0304 0,-0.6472 -2.9531,-1.8585 -6.5625,-2.6922 -12.3125,-2.8437 -20.1026,-3.0279 -33.4272,-0.7905 -18.7382,3.1467 -35.5333,2.1483 -51.8853,-3.0841 -14.9983,-4.7992 -23.5572,-4.686 -44.375,0.5874 -9.7777,2.4767 -18.7039,3.6482 -35,4.5933 -12.0312,0.6976 -24.7784,1.807 -28.3269,2.4649 -5.9968,1.1122 -26.6731,10.1405 -26.6731,11.6468 0,0.5526 12.2516,21.5991 22.7644,39.106 1.3417,2.2344 2.9848,4.0625 3.6513,4.0625 0.6665,0 13.6987,-4.5379 28.9605,-10.0843 z m -74.5558,-101.9036 c 9.8212,-2.9272 14.1927,-3.408 39.1796,-4.3091 17.7472,-0.64 30.4312,-1.6762 34.375,-2.8082 3.4375,-0.9868 11.1546,-3.2561 17.149,-5.0428 24.6318,-7.3419 49.1036,-7.6184 68.1485,-0.77 22.9056,8.2368 32.2028,10.1856 51.5775,10.8115 14.053,0.454 20.2311,0.1163 27.5,-1.5013 5.1563,-1.1477 17.3096,-2.3991 27.0076,-2.7807 l 17.6327,-0.694 11.3168,-19.5212 11.3169,-19.5213 -5.8245,-1.4425 c -9.8936,-2.4502 -20.8238,-1.8889 -38.164,1.9601 -31.7937,7.0572 -40.3922,6.3945 -78.6951,-6.065 -30.5209,-9.928 -40.419,-11.8337 -57.0331,-10.9805 -14.6983,0.7549 -22.0538,2.7301 -46.3073,12.4353 l -15.625,6.2523 -14.375,-1.0798 c -7.9062,-0.5939 -22.5312,-1.0799 -32.5,-1.0799 l -18.125,0 -10,4.7604 c -11.0979,5.2831 -25.9131,14.5111 -25.3579,15.7947 0.1969,0.4551 4.5495,7.9253 9.6726,16.6004 l 9.3148,15.7729 3.3806,-1.7483 c 1.8594,-0.9615 8.3552,-3.2309 14.4353,-5.043 z m -69.84135,-97.2255 c 3.24275,-1.6299 10.39595,-4.5495 15.89595,-6.4881 12.9242,-4.5555 31.568,-5.4169 55.0504,-2.5432 18.815,2.3025 31.1748,2.5233 40.7165,0.7276 3.7032,-0.697 20.2331,-5.715 36.7331,-11.1512 17.6459,-5.8137 34.3111,-10.5081 40.4689,-11.3995 20.2371,-2.9297 39.488,0.4252 78.9061,13.7506 14.0938,4.7643 28.6058,9.2598 32.249,9.9898 10.2494,2.0538 29.1816,1.5843 42.5546,-1.0552 18.0812,-3.5689 28.0245,-4.1162 44.5807,-2.4538 24.6148,2.4716 20.8588,4.2865 32.6756,-15.7886 5.6655,-9.625 10.3322,-17.9529 10.3706,-18.5063 0.1814,-2.6252 -24.2596,-10.8687 -32.2244,-10.8687 -2.0943,0 -12.7007,2.3572 -23.5696,5.2384 -18.462,4.8938 -20.8712,5.2412 -36.6365,5.2823 -19.5494,0.051 -22.0069,-0.5061 -55.5142,-12.5811 -34.12,-12.2957 -40.0719,-13.5509 -63.8608,-13.4666 l -20,0.071 -19.945,5.8593 c -30.2818,8.896 -38.3046,10.069 -69.43,10.151 -19.2682,0.051 -32.1605,-0.5964 -45.549,-2.2864 -30.2221,-3.8149 -45.6659,-1.4606 -76.42131,11.6498 -20.49395,8.7361 -19.91105,6.0945 -6.42215,29.1048 6.3346,10.8062 11.95804,19.6655 12.49651,19.6875 0.53849,0.023 3.63224,-1.2933 6.875,-2.9232 z m -60.84526,-105.8541 c 32.56704,-16.4399 81.68891,-22.2591 121.11621,-14.3481 11.8944,2.3865 22.4514,3.5813 35.7685,4.0482 22.348,0.7834 32.4277,-0.8397 52.8478,-8.5099 19.9719,-7.5017 31.5418,-10.1572 47.0087,-10.7893 16.8925,-0.6903 26.0588,1.0831 45.6689,8.8356 28.8985,11.4246 48.6091,15.7076 76.8311,16.6951 17.2974,0.6053 19.8638,0.3947 33.125,-2.7187 7.9063,-1.8561 20.2813,-4.7458 27.5,-6.4214 26.8673,-6.2364 50.6731,-5.2012 78.089,3.3956 8.7643,2.7482 11.5924,3.2 12.6573,2.0222 2.1427,-2.3699 25.5037,-43.1944 25.5037,-44.5689 0,-4.0846 -30.9384,-8.1529 -54.8785,-7.2161 -15.0676,0.5895 -19.4081,1.3152 -38.2465,6.3948 -30.4687,8.2158 -40.6641,9.8152 -62.5,9.8042 -27.924,-0.014 -46.5647,-3.6825 -93.75,-18.4503 -16.5,-5.164 -35.0433,-10.319 -41.2073,-11.4555 -15.1926,-2.8011 -23.4778,-1.295 -45.5504,8.2808 -26.9278,11.682 -28.3962,11.9573 -63.2423,11.863 -26.025,-0.07 -34.3062,-0.6195 -62.5,-4.1433 -42.60721,-5.3254 -61.66021,-6.1802 -75.45144,-3.3859 -11.3645,2.3028 -23.93621,6.9424 -37.99346,14.0215 -14.28812,7.1954 -14.89225,7.7053 -12.90334,10.8902 0.9269,1.4843 6.55773,10.9956 12.51293,21.1362 5.95521,10.1406 11.09854,18.4375 11.42962,18.4375 0.33109,0 4.0051,-1.7179 8.16448,-3.8175 z M 733.4279,1696.0595 c 29.80388,-13.0771 60.37842,-20.8482 86.875,-22.0807 18.52807,-0.8619 27.8036,0.4069 60.625,8.2923 35.6234,8.5586 46.9407,10.386 65,10.4955 19.1351,0.1162 25.154,-1.1528 50.5807,-10.6614 26.5101,-9.9137 38.1491,-12.6641 53.7943,-12.7119 14.9344,-0.046 21.8093,1.4669 40,8.8009 27.0428,10.9027 52.821,15.8272 90.625,17.3121 24.2728,0.9535 33.6953,-0.217 70.2073,-8.7212 31.2993,-7.2902 45.0983,-9.457 60.2607,-9.4633 15.5004,0 36.3554,4.0916 60.673,11.9219 11.2809,3.6325 18.3524,5.3297 19.0982,4.5839 3.4964,-3.4964 29.1609,-49.7343 27.9834,-50.4158 -2.5418,-1.4711 -38.8469,-9.8126 -53.6593,-12.3289 -27.2851,-4.635 -40.6827,-3.4534 -83.3133,7.3479 -29.8255,7.5569 -49.0266,10.136 -75.46,10.136 -32.3437,0 -48.9949,-2.7776 -94.2817,-15.7274 -38.5092,-11.0117 -45.4376,-12.3409 -64.0083,-12.2802 -18.6139,0.061 -30.0992,2.24 -68.8008,13.053 -37.5794,10.4995 -50.9343,12.9773 -69.9492,12.9782 -18.7836,9e-4 -23.5898,-0.9819 -55,-11.2464 -39.42815,-12.8847 -43.1926,-13.6195 -69.375,-13.5421 -21.06339,0.062 -23.41784,0.3121 -36.875,3.9125 -7.90625,2.1152 -19.15625,5.6033 -25,7.7513 -12.73549,4.6811 -34.42174,15.3026 -34.25877,16.7793 0.30105,2.7281 30.03777,51.9178 31.13377,51.5008 0.6875,-0.2617 6.59375,-2.8205 13.125,-5.6862 z m -5,-91.2853 c 7.90625,-1.9452 16.48437,-3.882 19.0625,-4.3037 l 4.6875,-0.767 0,-192.4434 0,-192.4433 -21.25,0 -21.25,0 0,197.6337 c 0,187.7271 0.10963,197.5893 2.1875,196.7472 1.20312,-0.4877 8.65625,-2.4782 16.5625,-4.4235 z m 633.75,-1.7838 c 7.2188,-0.027 16.3594,0.3782 20.3125,0.8998 l 7.1875,0.9484 0,-195.0109 0,-195.0109 -24.375,0 -24.375,0 0,194.9687 0,194.9688 4.0625,-0.8577 c 2.2344,-0.4717 9.9688,-0.8795 17.1875,-0.9062 z m 132.9283,-84.5388 c 14.8895,-25.8447 27.0717,-47.3603 27.0717,-47.8125 0,-0.4523 -12.6562,-0.8223 -28.125,-0.8223 l -28.125,0 0,49 c 0,26.95 0.474,48.4656 1.0533,47.8125 0.5792,-0.6531 13.2355,-22.3331 28.125,-48.1777 z m -861.6783,-4.2598 0,-44.375 -26.25,0 c -14.4375,0 -26.25,0.2926 -26.25,0.6502 0,0.9432 51.47471,88.0998 52.03179,88.0998 0.25751,0 0.46821,-19.9687 0.46821,-44.375 z m 275,16.875 0,-16.25 -40,0 -40,0 0,16.25 0,16.25 40,0 40,0 0,-16.25 z m 178.75,0 0,-16.25 -42.5,0 -42.5,0 0,16.25 0,16.25 42.5,0 42.5,0 0,-16.25 z m 177.5,0 0,-16.25 -42.5,0 -42.5,0 0,16.25 0,16.25 42.5,0 42.5,0 0,-16.25 z M 859.3627,1411.3097 c 10.1864,-20.6966 21.4895,-36.3739 38.4619,-53.3462 28.2251,-28.2252 63.4674,-47.7325 100.9119,-55.857 l 13.4336,-2.9147 0,-19.6875 0,-19.6875 -51.875,0 c -28.5312,0 -51.8432,-0.4219 -51.8044,-0.9375 0.069,-0.9187 140.1693,-106.8508 142.2186,-107.5339 1.2349,-0.4116 143.1446,105.4605 143.7524,107.2469 0.2675,0.7862 -17.966,1.2245 -50.9375,1.2245 l -51.3541,0 0,21.0573 0,21.0573 9.6875,2.7858 c 56.9567,16.3786 105.9883,57.721 130.949,110.4135 l 5.7725,12.1861 13.0455,0 13.0455,0 0,-138.75 0,-138.75 -26.25,0 -26.25,0 0,-29.375 0,-29.375 -161.25,0 -161.25,0 0,29.375 0,29.375 -30.625,0 -30.625,0 0,138.75 0,138.75 11.5625,-0.07 11.5625,-0.07 7.8098,-15.8679 z M 1817.7158,959.981 c 137.9577,-238.81592 250.6173,-434.42564 250.3547,-434.68826 -0.2626,-0.26261 -460.6205,-0.33651 -1023.0175,-0.16422 l -1022.54003,0.31326 258.88063,438.4375 258.88063,438.43752 46.57683,0 46.57684,0 0,-93.75 0,-93.75 -75,0 -75,0 0,-33.75 0,-33.75 50,0 50,0 0,-29.375 0,-29.375 -50,0 -50,0 0,-18.75 0,-18.75 -40.625,0 -40.625,0 0,-38.75 0,-38.75002 150,0 150,0 0,-24.375 0,-24.375 40,0 40,0 0,-20 0,-20 38.75,0 38.75,0 0,-23.75 0,-23.75 188.75,0 188.75,0 0,23.75 0,23.75 38.75,0 38.75,0 0,20 0,20 40,0 40,0 0,24.375 0,24.375 153.125,0 153.125,0 0,38.75002 0,38.75 -41.25,0 -41.25,0 0,18.75 0,18.75 -50.625,0 -50.625,0 0,29.375 0,29.375 50.625,0 50.625,0 0,33.75 0,33.75 -76.25,0 -76.25,0 0,93.7351 0,93.7352 47.8125,0.3273 47.8125,0.3274 2.6654,-4.375 c 1.4659,-2.4063 115.5397,-199.7699 253.4975,-438.5858 z"
         style="fill:#0c4498" />
      <path
         inkscape:connector-curvature="0"
         id="path6994"
         d="m 659.93765,1604.9637 -26.50975,-44.8532 0,-45.1468 0,-45.1469 -26.68567,0 -26.68569,0 -19.25181,-32.6801 c -10.58851,-17.9741 -19.43933,-33.1616 -19.66849,-33.75 -0.22918,-0.5885 20.4427,-1.0699 45.9375,-1.0699 l 46.35416,0 0,-93.75 0,-93.75 -75,0 -75,0 0,-33.75 0,-33.75 50,0 50,0 0,-29.375 0,-29.375 -50,0 -50,0 0,-18.75 0,-18.75 -40.625,0 -40.625,0 0,-38.75 0,-38.75002 150,0 150,0 0,-24.375 0,-24.375 40,0 40,0 0,-20 0,-20 38.75,0 38.75,0 0,-23.75 0,-23.75 188.75,0 188.75,0 0,23.75 0,23.75 38.75,0 38.75,0 0,20 0,20 40,0 40,0 0,24.375 0,24.375 153.125,0 153.125,0 0,38.75002 0,38.75 -41.25,0 -41.25,0 0,18.75 0,18.75 -50.625,0 -50.625,0 0,29.375 0,29.375 50.625,0 50.625,0 0,33.75 0,33.75 -76.25,0 -76.25,0 0,93.75 0,93.75 47.6338,0 c 44.8505,0 47.5848,0.1278 46.7978,2.1875 -0.4596,1.2031 -9.011,16.3906 -19.0028,33.75 l -18.1673,31.5625 -28.6307,0 -28.6308,0 0,49.476 0,49.4761 -21.41,37.0864 c -11.7754,20.3976 -21.5875,37.2893 -21.8046,37.5371 -0.2173,0.2478 -9.8484,-1.856 -21.4026,-4.6752 -41.1467,-10.0394 -62.4872,-12.1427 -84.2815,-8.3063 -5.762,1.0142 -21.445,4.6232 -34.8513,8.0199 -29.8255,7.5569 -49.0266,10.136 -75.46,10.136 -32.3437,0 -48.9949,-2.7776 -94.2817,-15.7274 -38.5092,-11.0117 -45.4376,-12.3409 -64.0083,-12.2802 -18.6139,0.061 -30.0992,2.24 -68.8008,13.053 -37.5794,10.4995 -50.9343,12.9773 -69.9492,12.9782 -18.7836,9e-4 -23.5898,-0.9819 -55,-11.2464 -39.01667,-12.7502 -43.2688,-13.5904 -68.75,-13.5842 -18.75687,0.01 -23.5677,0.4244 -33.75,2.9457 -17.37027,4.3012 -35.00911,10.6764 -50.76554,18.3481 -7.6398,3.7198 -14.13228,6.7632 -14.42775,6.7632 -0.29547,0 -12.46661,-20.1839 -27.04696,-44.8531 z m 68.49025,-0.1895 c 7.90625,-1.9452 16.48437,-3.882 19.0625,-4.3037 l 4.6875,-0.767 0,-192.4434 0,-192.4433 -21.25,0 -21.25,0 0,197.6337 c 0,187.7271 0.10963,197.5893 2.1875,196.7472 1.20312,-0.4877 8.65625,-2.4782 16.5625,-4.4235 z m 633.75,-1.7838 c 7.2188,-0.027 16.3594,0.3782 20.3125,0.8998 l 7.1875,0.9484 0,-195.0109 0,-195.0109 -24.375,0 -24.375,0 0,194.9687 0,194.9688 4.0625,-0.8577 c 2.2344,-0.4717 9.9688,-0.8795 17.1875,-0.9062 z m -453.75,-71.9236 0,-16.25 -40,0 -40,0 0,16.25 0,16.25 40,0 40,0 0,-16.25 z m 178.75,0 0,-16.25 -42.5,0 -42.5,0 0,16.25 0,16.25 42.5,0 42.5,0 0,-16.25 z m 177.5,0 0,-16.25 -42.5,0 -42.5,0 0,16.25 0,16.25 42.5,0 42.5,0 0,-16.25 z M 859.3627,1411.3097 c 10.1864,-20.6966 21.4895,-36.3739 38.4619,-53.3462 28.2251,-28.2252 63.4674,-47.7325 100.9119,-55.857 l 13.4336,-2.9147 0,-19.6875 0,-19.6875 -51.875,0 c -28.5312,0 -51.8432,-0.4219 -51.8044,-0.9375 0.069,-0.9187 140.1693,-106.8508 142.2186,-107.5339 1.2349,-0.4116 143.1446,105.4605 143.7524,107.2469 0.2675,0.7862 -17.966,1.2245 -50.9375,1.2245 l -51.3541,0 0,21.0573 0,21.0573 9.6875,2.7858 c 56.9567,16.3786 105.9883,57.721 130.949,110.4135 l 5.7725,12.1861 13.0455,0 13.0455,0 0,-138.75 0,-138.75 -26.25,0 -26.25,0 0,-29.375 0,-29.375 -161.25,0 -161.25,0 0,29.375 0,29.375 -30.625,0 -30.625,0 0,138.75 0,138.75 11.5625,-0.07 11.5625,-0.07 7.8098,-15.8679 z"
         style="fill:#000000" />
    </g>
  </g>
</svg>
